<?xml version="1.0" encoding="UTF-8" standalone="no"?>
<svg xmlns="http://www.w3.org/2000/svg" xmlns:xlink="http://www.w3.org/1999/xlink" class="card" face="AS" height="94mm" preserveAspectRatio="none" viewBox="-132 -180 264 360" width="69mm"><defs><symbol id="VSA" viewBox="-500 -500 1000 1000" preserveAspectRatio="xMinYMid"><path d="M-270 460L-110 460M-200 450L0 -460L200 450M110 460L270 460M-120 130L120 130" stroke="black" stroke-width="80" stroke-linecap="square" stroke-miterlimit="1.5" fill="none"></path></symbol><symbol id="SSA" viewBox="-600 -600 1200 1200" preserveAspectRatio="xMinYMid"><path d="M0 -500C100 -250 355 -100 355 185A150 150 0 0 1 55 185A10 10 0 0 0 35 185C35 385 85 400 130 500L-130 500C-85 400 -35 385 -35 185A10 10 0 0 0 -55 185A150 150 0 0 1 -355 185C-355 -100 -100 -250 0 -500Z" fill="black"></path></symbol></defs><rect x="-240" y="-336" width="480" height="672" fill="white"></rect><rect width="239" height="335" x="-119.5" y="-167.5" rx="12" ry="12" fill="white" stroke="black"></rect><use xlink:href="#SSA" height="160.8" width="160.8" x="-80.4" y="-80.4"></use><use xlink:href="#VSA" height="32" width="32" x="-112.4" y="-154"></use><use xlink:href="#SSA" height="26.769" width="26.769" x="-109.784" y="-117"></use><g transform="rotate(180)"><use xlink:href="#VSA" height="32" width="32" x="-112.4" y="-154"></use><use xlink:href="#SSA" height="26.769" width="26.769" x="-109.784" y="-117"></use></g></svg>