<?xml version="1.0" encoding="UTF-8" standalone="no"?>
<svg xmlns="http://www.w3.org/2000/svg" xmlns:xlink="http://www.w3.org/1999/xlink" class="card" face="JD" height="94mm" preserveAspectRatio="none" viewBox="-132 -180 264 360" width="69mm"><defs><symbol id="SDJ" viewBox="-600 -600 1200 1200" preserveAspectRatio="xMinYMid"><path d="M-400 0C-350 0 0 -450 0 -500C0 -450 350 0 400 0C350 0 0 450 0 500C0 450 -350 0 -400 0Z" fill="red"></path></symbol><symbol id="VDJ" viewBox="-500 -500 1000 1000" preserveAspectRatio="xMinYMid"><path d="M50 -460L250 -460M150 -460L150 250A100 100 0 0 1 -250 250L-250 220" stroke="red" stroke-width="80" stroke-linecap="square" stroke-miterlimit="1.5" fill="none"></path></symbol></defs><rect x="-240" y="-336" width="480" height="672" fill="white"></rect><rect width="239" height="335" x="-119.5" y="-167.5" rx="12" ry="12" fill="white" stroke="black"></rect><use xlink:href="#VDJ" height="160.8" width="160.8" x="-80.4" y="-80.4"></use><use xlink:href="#VDJ" height="32" width="32" x="-112.4" y="-154"></use><use xlink:href="#SDJ" height="26.769" width="26.769" x="-109.784" y="-117"></use><g transform="rotate(180)"><use xlink:href="#VDJ" height="32" width="32" x="-112.4" y="-154"></use><use xlink:href="#SDJ" height="26.769" width="26.769" x="-109.784" y="-117"></use></g></svg>